<mxfile modified="2024-04-22T15:10:15.777Z" host="app.diagrams.net" agent="Mozilla/5.0 (X11; Linux x86_64) AppleWebKit/537.36 (KHTML, like Gecko) Chrome/124.0.0.0 Safari/537.36" etag="kaWOpFpoyhZVsQS2h398" version="24.0.7" type="github">
  <diagram id="Ht1M8jgEwFfnCIfOTk4-" name="Page-1">
    <mxGraphModel dx="1147" dy="2258" grid="1" gridSize="10" guides="1" tooltips="1" connect="1" arrows="1" fold="1" page="1" pageScale="1" pageWidth="1169" pageHeight="827" math="0" shadow="0">
      <root>
        <mxCell id="0" />
        <mxCell id="1" parent="0" />
        <mxCell id="vprCxGWxDhBr143Cb13M-6" value="Electralink DB" style="sketch=0;html=1;aspect=fixed;strokeColor=none;shadow=0;align=center;fillColor=#2D9C5E;verticalAlign=top;labelPosition=center;verticalLabelPosition=bottom;shape=mxgraph.gcp2.external_data_center" parent="1" vertex="1">
          <mxGeometry x="133" y="-1260" width="77" height="100" as="geometry" />
        </mxCell>
        <mxCell id="vprCxGWxDhBr143Cb13M-8" value="Zoho DB" style="sketch=0;html=1;aspect=fixed;strokeColor=none;shadow=0;align=center;fillColor=#2D9C5E;verticalAlign=top;labelPosition=center;verticalLabelPosition=bottom;shape=mxgraph.gcp2.external_data_center" parent="1" vertex="1">
          <mxGeometry x="133" y="-1110" width="77" height="100" as="geometry" />
        </mxCell>
        <mxCell id="vprCxGWxDhBr143Cb13M-21" style="edgeStyle=orthogonalEdgeStyle;rounded=0;orthogonalLoop=1;jettySize=auto;html=1;" parent="1" source="vprCxGWxDhBr143Cb13M-9" target="vprCxGWxDhBr143Cb13M-8" edge="1">
          <mxGeometry relative="1" as="geometry" />
        </mxCell>
        <mxCell id="vprCxGWxDhBr143Cb13M-10" value="AWS Cloud" style="points=[[0,0],[0.25,0],[0.5,0],[0.75,0],[1,0],[1,0.25],[1,0.5],[1,0.75],[1,1],[0.75,1],[0.5,1],[0.25,1],[0,1],[0,0.75],[0,0.5],[0,0.25]];outlineConnect=0;gradientColor=none;html=1;whiteSpace=wrap;fontSize=12;fontStyle=0;container=0;pointerEvents=0;collapsible=0;recursiveResize=0;shape=mxgraph.aws4.group;grIcon=mxgraph.aws4.group_aws_cloud_alt;strokeColor=#232F3E;fillColor=none;verticalAlign=top;align=left;spacingLeft=30;fontColor=#232F3E;dashed=0;" parent="1" vertex="1">
          <mxGeometry x="320" y="-1585" width="750" height="645" as="geometry" />
        </mxCell>
        <mxCell id="vprCxGWxDhBr143Cb13M-19" style="edgeStyle=orthogonalEdgeStyle;rounded=0;orthogonalLoop=1;jettySize=auto;html=1;endArrow=none;endFill=0;startArrow=classic;startFill=1;" parent="1" source="vprCxGWxDhBr143Cb13M-7" target="vprCxGWxDhBr143Cb13M-6" edge="1">
          <mxGeometry relative="1" as="geometry" />
        </mxCell>
        <mxCell id="H6YpS96diYnmcuf0h5bm-19" style="edgeStyle=orthogonalEdgeStyle;rounded=0;orthogonalLoop=1;jettySize=auto;html=1;entryX=0.96;entryY=0.7;entryDx=0;entryDy=0;entryPerimeter=0;" parent="1" source="H6YpS96diYnmcuf0h5bm-9" target="H6YpS96diYnmcuf0h5bm-17" edge="1">
          <mxGeometry relative="1" as="geometry" />
        </mxCell>
        <mxCell id="vprCxGWxDhBr143Cb13M-9" value="Zoho Analytics API Call" style="image;aspect=fixed;html=1;points=[];align=center;fontSize=12;image=img/lib/azure2/devops/API_Connections.svg;" parent="1" vertex="1">
          <mxGeometry x="280" y="-1082.66" width="68" height="45.32" as="geometry" />
        </mxCell>
        <mxCell id="LjyLm-vrqYKXXPzVkxiu-5" style="edgeStyle=orthogonalEdgeStyle;rounded=0;orthogonalLoop=1;jettySize=auto;html=1;startArrow=classic;startFill=1;endArrow=none;endFill=0;" parent="1" source="vprCxGWxDhBr143Cb13M-9" target="LjyLm-vrqYKXXPzVkxiu-3" edge="1">
          <mxGeometry relative="1" as="geometry" />
        </mxCell>
        <mxCell id="rFwL6j3Ajk4qcMYJ6Uj9-41" value="Writes To" style="edgeLabel;html=1;align=center;verticalAlign=middle;resizable=0;points=[];" vertex="1" connectable="0" parent="LjyLm-vrqYKXXPzVkxiu-5">
          <mxGeometry x="-0.4316" y="1" relative="1" as="geometry">
            <mxPoint x="25" as="offset" />
          </mxGeometry>
        </mxCell>
        <mxCell id="vprCxGWxDhBr143Cb13M-4" value="Authorization Lambda&lt;div&gt;Function&lt;/div&gt;" style="sketch=0;points=[[0,0,0],[0.25,0,0],[0.5,0,0],[0.75,0,0],[1,0,0],[0,1,0],[0.25,1,0],[0.5,1,0],[0.75,1,0],[1,1,0],[0,0.25,0],[0,0.5,0],[0,0.75,0],[1,0.25,0],[1,0.5,0],[1,0.75,0]];outlineConnect=0;fontColor=#232F3E;fillColor=#ED7100;strokeColor=#ffffff;dashed=0;verticalLabelPosition=bottom;verticalAlign=top;align=center;html=1;fontSize=12;fontStyle=0;aspect=fixed;shape=mxgraph.aws4.resourceIcon;resIcon=mxgraph.aws4.lambda;" parent="1" vertex="1">
          <mxGeometry x="890" y="-1544" width="78" height="78" as="geometry" />
        </mxCell>
        <mxCell id="H6YpS96diYnmcuf0h5bm-13" value="" style="edgeStyle=orthogonalEdgeStyle;rounded=0;orthogonalLoop=1;jettySize=auto;html=1;" parent="1" source="H6YpS96diYnmcuf0h5bm-1" target="H6YpS96diYnmcuf0h5bm-9" edge="1">
          <mxGeometry relative="1" as="geometry" />
        </mxCell>
        <mxCell id="H6YpS96diYnmcuf0h5bm-1" value="Cloudwatch Alarm" style="sketch=0;outlineConnect=0;fontColor=#232F3E;gradientColor=none;fillColor=#E7157B;strokeColor=none;dashed=0;verticalLabelPosition=bottom;verticalAlign=top;align=center;html=1;fontSize=12;fontStyle=0;aspect=fixed;pointerEvents=1;shape=mxgraph.aws4.alarm;" parent="1" vertex="1">
          <mxGeometry x="375" y="-1420" width="80" height="80" as="geometry" />
        </mxCell>
        <mxCell id="H6YpS96diYnmcuf0h5bm-9" value="SNS Notification&lt;div&gt;Dispatch&lt;/div&gt;" style="sketch=0;points=[[0,0,0],[0.25,0,0],[0.5,0,0],[0.75,0,0],[1,0,0],[0,1,0],[0.25,1,0],[0.5,1,0],[0.75,1,0],[1,1,0],[0,0.25,0],[0,0.5,0],[0,0.75,0],[1,0.25,0],[1,0.5,0],[1,0.75,0]];outlineConnect=0;fontColor=#232F3E;fillColor=#E7157B;strokeColor=#ffffff;dashed=0;verticalLabelPosition=bottom;verticalAlign=top;align=center;html=1;fontSize=12;fontStyle=0;aspect=fixed;shape=mxgraph.aws4.resourceIcon;resIcon=mxgraph.aws4.sns;" parent="1" vertex="1">
          <mxGeometry x="375" y="-1544" width="80" height="80" as="geometry" />
        </mxCell>
        <mxCell id="rFwL6j3Ajk4qcMYJ6Uj9-31" style="edgeStyle=orthogonalEdgeStyle;rounded=0;orthogonalLoop=1;jettySize=auto;html=1;exitX=0;exitY=0.5;exitDx=0;exitDy=0;exitPerimeter=0;fillColor=#f8cecc;strokeColor=#b85450;" edge="1" parent="1" source="LjyLm-vrqYKXXPzVkxiu-1" target="H6YpS96diYnmcuf0h5bm-1">
          <mxGeometry relative="1" as="geometry">
            <Array as="points">
              <mxPoint x="480" y="-1310" />
              <mxPoint x="480" y="-1380" />
            </Array>
          </mxGeometry>
        </mxCell>
        <mxCell id="LjyLm-vrqYKXXPzVkxiu-1" value="MPAN Lookup" style="sketch=0;points=[[0,0,0],[0.25,0,0],[0.5,0,0],[0.75,0,0],[1,0,0],[0,1,0],[0.25,1,0],[0.5,1,0],[0.75,1,0],[1,1,0],[0,0.25,0],[0,0.5,0],[0,0.75,0],[1,0.25,0],[1,0.5,0],[1,0.75,0]];outlineConnect=0;fontColor=#232F3E;fillColor=#ED7100;strokeColor=#ffffff;dashed=0;verticalLabelPosition=bottom;verticalAlign=top;align=center;html=1;fontSize=12;fontStyle=0;aspect=fixed;shape=mxgraph.aws4.resourceIcon;resIcon=mxgraph.aws4.lambda;" parent="1" vertex="1">
          <mxGeometry x="495" y="-1350" width="80" height="80" as="geometry" />
        </mxCell>
        <mxCell id="rFwL6j3Ajk4qcMYJ6Uj9-33" style="edgeStyle=orthogonalEdgeStyle;rounded=0;orthogonalLoop=1;jettySize=auto;html=1;exitX=0;exitY=0.5;exitDx=0;exitDy=0;exitPerimeter=0;fillColor=#f8cecc;strokeColor=#b85450;" edge="1" parent="1" source="LjyLm-vrqYKXXPzVkxiu-2" target="H6YpS96diYnmcuf0h5bm-1">
          <mxGeometry relative="1" as="geometry">
            <Array as="points">
              <mxPoint x="770" y="-1310" />
              <mxPoint x="770" y="-1380" />
            </Array>
          </mxGeometry>
        </mxCell>
        <mxCell id="LjyLm-vrqYKXXPzVkxiu-2" value="Address Lookup" style="sketch=0;points=[[0,0,0],[0.25,0,0],[0.5,0,0],[0.75,0,0],[1,0,0],[0,1,0],[0.25,1,0],[0.5,1,0],[0.75,1,0],[1,1,0],[0,0.25,0],[0,0.5,0],[0,0.75,0],[1,0.25,0],[1,0.5,0],[1,0.75,0]];outlineConnect=0;fontColor=#232F3E;fillColor=#ED7100;strokeColor=#ffffff;dashed=0;verticalLabelPosition=bottom;verticalAlign=top;align=center;html=1;fontSize=12;fontStyle=0;aspect=fixed;shape=mxgraph.aws4.resourceIcon;resIcon=mxgraph.aws4.lambda;" parent="1" vertex="1">
          <mxGeometry x="815" y="-1350" width="80" height="80" as="geometry" />
        </mxCell>
        <mxCell id="LjyLm-vrqYKXXPzVkxiu-3" value="Zoho Logging" style="sketch=0;points=[[0,0,0],[0.25,0,0],[0.5,0,0],[0.75,0,0],[1,0,0],[0,1,0],[0.25,1,0],[0.5,1,0],[0.75,1,0],[1,1,0],[0,0.25,0],[0,0.5,0],[0,0.75,0],[1,0.25,0],[1,0.5,0],[1,0.75,0]];outlineConnect=0;fontColor=#232F3E;fillColor=#ED7100;strokeColor=#ffffff;dashed=0;verticalLabelPosition=bottom;verticalAlign=top;align=center;html=1;fontSize=12;fontStyle=0;aspect=fixed;shape=mxgraph.aws4.resourceIcon;resIcon=mxgraph.aws4.lambda;" parent="1" vertex="1">
          <mxGeometry x="495" y="-1100" width="80" height="80" as="geometry" />
        </mxCell>
        <mxCell id="rFwL6j3Ajk4qcMYJ6Uj9-32" style="edgeStyle=orthogonalEdgeStyle;rounded=0;orthogonalLoop=1;jettySize=auto;html=1;exitX=0;exitY=0.5;exitDx=0;exitDy=0;exitPerimeter=0;fillColor=#f8cecc;strokeColor=#b85450;" edge="1" parent="1" source="LjyLm-vrqYKXXPzVkxiu-4" target="H6YpS96diYnmcuf0h5bm-1">
          <mxGeometry relative="1" as="geometry">
            <Array as="points">
              <mxPoint x="610" y="-1310" />
              <mxPoint x="610" y="-1380" />
            </Array>
          </mxGeometry>
        </mxCell>
        <mxCell id="rFwL6j3Ajk4qcMYJ6Uj9-35" value="On Error" style="edgeLabel;html=1;align=center;verticalAlign=middle;resizable=0;points=[];" vertex="1" connectable="0" parent="rFwL6j3Ajk4qcMYJ6Uj9-32">
          <mxGeometry x="0.8014" y="1" relative="1" as="geometry">
            <mxPoint x="14" y="-1" as="offset" />
          </mxGeometry>
        </mxCell>
        <mxCell id="rFwL6j3Ajk4qcMYJ6Uj9-34" style="edgeStyle=orthogonalEdgeStyle;rounded=0;orthogonalLoop=1;jettySize=auto;html=1;exitX=0;exitY=0.75;exitDx=0;exitDy=0;exitPerimeter=0;" edge="1" parent="1" source="LjyLm-vrqYKXXPzVkxiu-4" target="LjyLm-vrqYKXXPzVkxiu-3">
          <mxGeometry relative="1" as="geometry">
            <Array as="points">
              <mxPoint x="610" y="-1290" />
              <mxPoint x="610" y="-1060" />
            </Array>
          </mxGeometry>
        </mxCell>
        <mxCell id="LjyLm-vrqYKXXPzVkxiu-4" value="Meter Data Retrieval" style="sketch=0;points=[[0,0,0],[0.25,0,0],[0.5,0,0],[0.75,0,0],[1,0,0],[0,1,0],[0.25,1,0],[0.5,1,0],[0.75,1,0],[1,1,0],[0,0.25,0],[0,0.5,0],[0,0.75,0],[1,0.25,0],[1,0.5,0],[1,0.75,0]];outlineConnect=0;fontColor=#232F3E;fillColor=#ED7100;strokeColor=#ffffff;dashed=0;verticalLabelPosition=bottom;verticalAlign=top;align=center;html=1;fontSize=12;fontStyle=0;aspect=fixed;shape=mxgraph.aws4.resourceIcon;resIcon=mxgraph.aws4.lambda;" parent="1" vertex="1">
          <mxGeometry x="655" y="-1350" width="80" height="80" as="geometry" />
        </mxCell>
        <mxCell id="H6YpS96diYnmcuf0h5bm-4" value="IAM Role Assignment" style="sketch=0;outlineConnect=0;fontColor=#232F3E;gradientColor=none;fillColor=#DD344C;strokeColor=none;dashed=0;verticalLabelPosition=bottom;verticalAlign=top;align=center;html=1;fontSize=12;fontStyle=0;aspect=fixed;pointerEvents=1;shape=mxgraph.aws4.role;" parent="1" vertex="1">
          <mxGeometry x="940" y="-1082" width="78" height="44" as="geometry" />
        </mxCell>
        <mxCell id="vprCxGWxDhBr143Cb13M-22" value="Electralink S3 Store" style="sketch=0;points=[[0,0,0],[0.25,0,0],[0.5,0,0],[0.75,0,0],[1,0,0],[0,1,0],[0.25,1,0],[0.5,1,0],[0.75,1,0],[1,1,0],[0,0.25,0],[0,0.5,0],[0,0.75,0],[1,0.25,0],[1,0.5,0],[1,0.75,0]];outlineConnect=0;fontColor=#232F3E;fillColor=#7AA116;strokeColor=#ffffff;dashed=0;verticalLabelPosition=bottom;verticalAlign=top;align=center;html=1;fontSize=12;fontStyle=0;aspect=fixed;shape=mxgraph.aws4.resourceIcon;resIcon=mxgraph.aws4.s3;" parent="1" vertex="1">
          <mxGeometry x="812" y="-1100" width="78" height="78" as="geometry" />
        </mxCell>
        <mxCell id="vprCxGWxDhBr143Cb13M-5" value="DynamoDB Electralink&lt;div&gt;Table&lt;/div&gt;" style="sketch=0;points=[[0,0,0],[0.25,0,0],[0.5,0,0],[0.75,0,0],[1,0,0],[0,1,0],[0.25,1,0],[0.5,1,0],[0.75,1,0],[1,1,0],[0,0.25,0],[0,0.5,0],[0,0.75,0],[1,0.25,0],[1,0.5,0],[1,0.75,0]];outlineConnect=0;fontColor=#232F3E;fillColor=#C925D1;strokeColor=#ffffff;dashed=0;verticalLabelPosition=bottom;verticalAlign=top;align=center;html=1;fontSize=12;fontStyle=0;aspect=fixed;shape=mxgraph.aws4.resourceIcon;resIcon=mxgraph.aws4.dynamodb;" parent="1" vertex="1">
          <mxGeometry x="680" y="-1100" width="78" height="78" as="geometry" />
        </mxCell>
        <mxCell id="vprCxGWxDhBr143Cb13M-7" value="Electralink API Call" style="image;aspect=fixed;html=1;points=[];align=center;fontSize=12;image=img/lib/azure2/devops/API_Connections.svg;" parent="1" vertex="1">
          <mxGeometry x="290" y="-1232.66" width="68" height="45.32" as="geometry" />
        </mxCell>
        <mxCell id="LjyLm-vrqYKXXPzVkxiu-18" value="" style="group" parent="1" vertex="1" connectable="0">
          <mxGeometry x="50" y="-1590" width="160" height="270" as="geometry" />
        </mxCell>
        <mxCell id="H6YpS96diYnmcuf0h5bm-17" value="" style="ellipse;shape=cloud;whiteSpace=wrap;html=1;movable=1;resizable=1;rotatable=1;deletable=1;editable=1;locked=0;connectable=1;" parent="LjyLm-vrqYKXXPzVkxiu-18" vertex="1">
          <mxGeometry width="160" height="270" as="geometry" />
        </mxCell>
        <mxCell id="H6YpS96diYnmcuf0h5bm-14" value="" style="dashed=0;outlineConnect=0;html=1;align=center;labelPosition=center;verticalLabelPosition=bottom;verticalAlign=top;shape=mxgraph.weblogos.sms;fillColor=#48B921;strokeColor=none;movable=1;resizable=1;rotatable=1;deletable=1;editable=1;locked=0;connectable=1;" parent="LjyLm-vrqYKXXPzVkxiu-18" vertex="1">
          <mxGeometry x="45.39999999999998" y="60" width="69.2" height="64" as="geometry" />
        </mxCell>
        <mxCell id="H6YpS96diYnmcuf0h5bm-16" value="" style="verticalLabelPosition=bottom;html=1;verticalAlign=top;align=center;strokeColor=none;fillColor=#00BEF2;shape=mxgraph.azure.message;pointerEvents=1;movable=1;resizable=1;rotatable=1;deletable=1;editable=1;locked=0;connectable=1;" parent="LjyLm-vrqYKXXPzVkxiu-18" vertex="1">
          <mxGeometry x="45.400000000000034" y="140" width="84" height="57.5" as="geometry" />
        </mxCell>
        <mxCell id="rFwL6j3Ajk4qcMYJ6Uj9-13" style="edgeStyle=orthogonalEdgeStyle;rounded=0;orthogonalLoop=1;jettySize=auto;html=1;exitX=0.5;exitY=1;exitDx=0;exitDy=0;exitPerimeter=0;" edge="1" parent="1" source="rFwL6j3Ajk4qcMYJ6Uj9-12" target="LjyLm-vrqYKXXPzVkxiu-1">
          <mxGeometry relative="1" as="geometry" />
        </mxCell>
        <mxCell id="rFwL6j3Ajk4qcMYJ6Uj9-14" style="edgeStyle=orthogonalEdgeStyle;rounded=0;orthogonalLoop=1;jettySize=auto;html=1;exitX=0.5;exitY=1;exitDx=0;exitDy=0;exitPerimeter=0;" edge="1" parent="1" source="rFwL6j3Ajk4qcMYJ6Uj9-12" target="LjyLm-vrqYKXXPzVkxiu-4">
          <mxGeometry relative="1" as="geometry" />
        </mxCell>
        <mxCell id="rFwL6j3Ajk4qcMYJ6Uj9-15" style="edgeStyle=orthogonalEdgeStyle;rounded=0;orthogonalLoop=1;jettySize=auto;html=1;exitX=0.5;exitY=1;exitDx=0;exitDy=0;exitPerimeter=0;" edge="1" parent="1" source="rFwL6j3Ajk4qcMYJ6Uj9-12" target="LjyLm-vrqYKXXPzVkxiu-2">
          <mxGeometry relative="1" as="geometry" />
        </mxCell>
        <mxCell id="rFwL6j3Ajk4qcMYJ6Uj9-43" value="If Authorized" style="edgeLabel;html=1;align=center;verticalAlign=middle;resizable=0;points=[];" vertex="1" connectable="0" parent="rFwL6j3Ajk4qcMYJ6Uj9-15">
          <mxGeometry x="-0.6146" relative="1" as="geometry">
            <mxPoint as="offset" />
          </mxGeometry>
        </mxCell>
        <mxCell id="rFwL6j3Ajk4qcMYJ6Uj9-12" value="API Gateway" style="sketch=0;points=[[0,0,0],[0.25,0,0],[0.5,0,0],[0.75,0,0],[1,0,0],[0,1,0],[0.25,1,0],[0.5,1,0],[0.75,1,0],[1,1,0],[0,0.25,0],[0,0.5,0],[0,0.75,0],[1,0.25,0],[1,0.5,0],[1,0.75,0]];outlineConnect=0;fontColor=#232F3E;fillColor=#E7157B;strokeColor=#ffffff;dashed=0;verticalLabelPosition=bottom;verticalAlign=top;align=center;html=1;fontSize=12;fontStyle=0;aspect=fixed;shape=mxgraph.aws4.resourceIcon;resIcon=mxgraph.aws4.api_gateway;" vertex="1" parent="1">
          <mxGeometry x="654" y="-1624" width="80" height="80" as="geometry" />
        </mxCell>
        <mxCell id="rFwL6j3Ajk4qcMYJ6Uj9-16" style="edgeStyle=orthogonalEdgeStyle;rounded=0;orthogonalLoop=1;jettySize=auto;html=1;exitX=1;exitY=0.75;exitDx=0;exitDy=0;exitPerimeter=0;entryX=0;entryY=0.5;entryDx=0;entryDy=0;entryPerimeter=0;" edge="1" parent="1" source="rFwL6j3Ajk4qcMYJ6Uj9-12" target="vprCxGWxDhBr143Cb13M-4">
          <mxGeometry relative="1" as="geometry" />
        </mxCell>
        <mxCell id="rFwL6j3Ajk4qcMYJ6Uj9-26" value="Authorize&lt;div&gt;Token&lt;/div&gt;" style="edgeLabel;html=1;align=center;verticalAlign=middle;resizable=0;points=[];" vertex="1" connectable="0" parent="rFwL6j3Ajk4qcMYJ6Uj9-16">
          <mxGeometry x="-0.585" relative="1" as="geometry">
            <mxPoint as="offset" />
          </mxGeometry>
        </mxCell>
        <mxCell id="rFwL6j3Ajk4qcMYJ6Uj9-27" style="edgeStyle=orthogonalEdgeStyle;rounded=0;orthogonalLoop=1;jettySize=auto;html=1;exitX=0.5;exitY=1;exitDx=0;exitDy=0;exitPerimeter=0;entryX=1.003;entryY=0.504;entryDx=0;entryDy=0;entryPerimeter=0;startArrow=classic;startFill=1;" edge="1" parent="1" source="LjyLm-vrqYKXXPzVkxiu-1" target="vprCxGWxDhBr143Cb13M-7">
          <mxGeometry relative="1" as="geometry" />
        </mxCell>
        <mxCell id="rFwL6j3Ajk4qcMYJ6Uj9-28" style="edgeStyle=orthogonalEdgeStyle;rounded=0;orthogonalLoop=1;jettySize=auto;html=1;exitX=0.5;exitY=1;exitDx=0;exitDy=0;exitPerimeter=0;entryX=0.991;entryY=0.513;entryDx=0;entryDy=0;entryPerimeter=0;startArrow=classic;startFill=1;" edge="1" parent="1" source="LjyLm-vrqYKXXPzVkxiu-4" target="vprCxGWxDhBr143Cb13M-7">
          <mxGeometry relative="1" as="geometry" />
        </mxCell>
        <mxCell id="rFwL6j3Ajk4qcMYJ6Uj9-30" style="edgeStyle=orthogonalEdgeStyle;rounded=0;orthogonalLoop=1;jettySize=auto;html=1;exitX=0.5;exitY=1;exitDx=0;exitDy=0;exitPerimeter=0;entryX=1.007;entryY=0.518;entryDx=0;entryDy=0;entryPerimeter=0;startArrow=classic;startFill=1;" edge="1" parent="1" source="LjyLm-vrqYKXXPzVkxiu-2" target="vprCxGWxDhBr143Cb13M-7">
          <mxGeometry relative="1" as="geometry" />
        </mxCell>
        <mxCell id="rFwL6j3Ajk4qcMYJ6Uj9-42" value="Reads From" style="edgeLabel;html=1;align=center;verticalAlign=middle;resizable=0;points=[];" vertex="1" connectable="0" parent="rFwL6j3Ajk4qcMYJ6Uj9-30">
          <mxGeometry x="0.8417" y="-1" relative="1" as="geometry">
            <mxPoint x="13" as="offset" />
          </mxGeometry>
        </mxCell>
        <mxCell id="rFwL6j3Ajk4qcMYJ6Uj9-36" style="edgeStyle=orthogonalEdgeStyle;rounded=0;orthogonalLoop=1;jettySize=auto;html=1;exitX=0.5;exitY=0;exitDx=0;exitDy=0;exitPerimeter=0;entryX=1;entryY=0.75;entryDx=0;entryDy=0;entryPerimeter=0;dashed=1;dashPattern=8 8;" edge="1" parent="1" source="vprCxGWxDhBr143Cb13M-5" target="LjyLm-vrqYKXXPzVkxiu-4">
          <mxGeometry relative="1" as="geometry">
            <Array as="points">
              <mxPoint x="719" y="-1160" />
              <mxPoint x="770" y="-1160" />
              <mxPoint x="770" y="-1290" />
            </Array>
          </mxGeometry>
        </mxCell>
        <mxCell id="rFwL6j3Ajk4qcMYJ6Uj9-38" style="edgeStyle=orthogonalEdgeStyle;rounded=0;orthogonalLoop=1;jettySize=auto;html=1;exitX=0.5;exitY=0;exitDx=0;exitDy=0;exitPerimeter=0;entryX=1;entryY=0.75;entryDx=0;entryDy=0;entryPerimeter=0;dashed=1;dashPattern=8 8;" edge="1" parent="1" source="vprCxGWxDhBr143Cb13M-22" target="LjyLm-vrqYKXXPzVkxiu-4">
          <mxGeometry relative="1" as="geometry">
            <Array as="points">
              <mxPoint x="851" y="-1160" />
              <mxPoint x="770" y="-1160" />
              <mxPoint x="770" y="-1290" />
            </Array>
          </mxGeometry>
        </mxCell>
        <mxCell id="rFwL6j3Ajk4qcMYJ6Uj9-39" style="edgeStyle=orthogonalEdgeStyle;rounded=0;orthogonalLoop=1;jettySize=auto;html=1;entryX=1;entryY=0.75;entryDx=0;entryDy=0;entryPerimeter=0;dashed=1;dashPattern=8 8;" edge="1" parent="1" source="H6YpS96diYnmcuf0h5bm-4" target="LjyLm-vrqYKXXPzVkxiu-4">
          <mxGeometry relative="1" as="geometry">
            <Array as="points">
              <mxPoint x="979" y="-1160" />
              <mxPoint x="770" y="-1160" />
              <mxPoint x="770" y="-1290" />
            </Array>
          </mxGeometry>
        </mxCell>
        <mxCell id="rFwL6j3Ajk4qcMYJ6Uj9-40" value="Input Meta Data" style="edgeLabel;html=1;align=center;verticalAlign=middle;resizable=0;points=[];" vertex="1" connectable="0" parent="rFwL6j3Ajk4qcMYJ6Uj9-39">
          <mxGeometry x="0.3529" y="-1" relative="1" as="geometry">
            <mxPoint as="offset" />
          </mxGeometry>
        </mxCell>
      </root>
    </mxGraphModel>
  </diagram>
</mxfile>
